<?xml version="1.0" encoding="utf-8"?>
<!-- Generator: Adobe Illustrator 27.5.0, SVG Export Plug-In . SVG Version: 6.00 Build 0)  -->
<svg version="1.1" id="Capa_1" xmlns="http://www.w3.org/2000/svg" xmlns:xlink="http://www.w3.org/1999/xlink" x="0px" y="0px"
	 viewBox="0 0 2122 2122" style="enable-background:new 0 0 2122 2122;" xml:space="preserve">
<g>
	<path style="fill:#243265;" d="M1917.609,654.11c-101.274-213.471-348.192-308.789-554.179-215.296
		c-0.014-0.027-0.022-0.056-0.036-0.083v-0.001c-14.366-30.284-50.9-43.307-81.183-28.94l-232.625,110.36
		c-30.285,14.367-43.307,50.9-28.94,81.184l-2.151,1.02l0,0l-78.643,37.31l-22.325,10.592l-44.264-93.304l-91.401,43.362
		l44.264,93.303l-130.36,61.845c-14.368-30.284-50.9-43.306-81.184-28.939l-232.625,110.36
		c-30.284,14.367-43.307,50.9-28.939,81.184l0,0c0.371,0.784,0.818,1.506,1.219,2.266
		c-178.157,110.3-246.061,345.507-150.531,546.876c102.298,215.63,353.209,310.739,560.425,212.432
		c136.939-64.965,220.466-198.153,231.889-343.246l319.084-151.378c119.601,82.934,275.593,102.491,412.532,37.525
		C1934.851,1124.236,2019.906,869.74,1917.609,654.11z"/>
	<path style="fill:#F6A654;" d="M412.349,889.066c0.112,0.235,0.248,0.449,0.367,0.68l267.78-127.039
		c-0.103-0.237-0.184-0.479-0.294-0.714l-2.124-4.477c-6.599-13.911-23.38-19.893-37.291-13.294L423.518,847.297
		c-13.91,6.599-19.893,23.381-13.293,37.292L412.349,889.066z"/>
	<path style="fill:#F6A654;" d="M1347.83,445.26l-2.124-4.477c-6.599-13.911-23.38-19.893-37.291-13.294l-217.266,103.075
		c-13.911,6.599-19.893,23.381-13.294,37.292l2.124,4.477c0.111,0.235,0.248,0.449,0.367,0.68l267.78-127.038
		C1348.021,445.738,1347.942,445.496,1347.83,445.26z"/>
	<path style="fill:#22BBE9;" d="M1845.461,652.226c-91.743-193.38-316.765-278.676-502.598-190.513l-324.461,153.929l-0.54,77.156
		c-0.125,17.807-9.464,33.317-24.298,40.355l-151.332,71.794c-14.834,7.037-32.755,4.459-46.625-6.708l-60.101-48.388
		L459.919,880.593l0.274,0.578c-172.229,94.182-275.315,330.025-186.699,516.818c104.292,219.834,294.99,275.298,476.541,202.875
		c171.909-68.575,204.715-196.109,217.856-312.523l337.234-159.989c107.262,74.377,247.157,91.915,369.967,33.653
		C1860.925,1073.843,1937.204,845.607,1845.461,652.226z"/>
	<path style="fill:#243265;" d="M807.006,1237.01l-56.064-118.176c-5.297-11.164-18.641-15.921-29.804-10.625l-62.2,29.508
		c-11.163,5.296-24.507,0.54-29.804-10.624l-29.508-62.199c-5.296-11.164-18.64-15.921-29.804-10.624l-118.175,56.064
		c-11.164,5.296-15.921,18.64-10.625,29.804l29.508,62.198c5.296,11.165,0.54,24.508-10.624,29.805l-62.198,29.507
		c-11.164,5.296-15.921,18.641-10.624,29.804l56.063,118.176c5.297,11.164,18.641,15.92,29.804,10.624l62.198-29.507
		c11.164-5.297,24.508-0.54,29.804,10.624l29.508,62.198c5.296,11.164,18.64,15.921,29.804,10.624l118.175-56.064
		c11.164-5.296,15.921-18.64,10.625-29.804l-29.508-62.198c-5.296-11.164-0.54-24.508,10.625-29.804l62.199-29.508
		C807.546,1261.518,812.302,1248.174,807.006,1237.01z"/>
	<path style="fill:#FFFFFF;" d="M523.673,1146.647l28.713-13.622c3.188-1.512,3.452-5.946,0.468-7.827l-25.089-15.812
		c-2.775-1.749-6.425-0.017-6.826,3.238l-3.625,29.434C516.883,1145.559,520.485,1148.159,523.673,1146.647z"/>
	<path style="fill:#FFFFFF;" d="M666.543,1373.653l-28.714,13.622c-3.188,1.512-3.451,5.947-0.468,7.827l25.09,15.812
		c2.774,1.749,6.425,0.017,6.826-3.238l3.623-29.434C673.333,1374.74,669.731,1372.141,666.543,1373.653z"/>
	<path style="fill:#FFFFFF;" d="M742.635,1185.98l-29.435-3.624c-3.5-0.431-6.101,3.171-4.588,6.358l13.622,28.713
		c1.512,3.188,5.945,3.453,7.827,0.468l15.811-25.089C747.621,1190.032,745.889,1186.381,742.635,1185.98z"/>
	<path style="fill:#FFFFFF;" d="M467.984,1302.871c-1.513-3.187-5.947-3.452-7.827-0.468l-15.813,25.089
		c-1.748,2.775-0.017,6.425,3.239,6.826l29.433,3.624c3.502,0.431,6.101-3.171,4.59-6.358L467.984,1302.871z"/>
	<path style="fill:#22BBE9;" d="M669.932,1229.652l3.272-1.553c-14.425-30.391-44.677-48.188-76.217-48.184
		c-12.109-0.001-24.419,2.624-36.074,8.155c-30.395,14.421-48.191,44.674-48.186,76.215c0,12.11,2.626,24.419,8.157,36.076
		c14.418,30.39,44.672,48.188,76.214,48.183c12.11,0.001,24.42-2.624,36.078-8.154c30.387-14.422,48.185-44.674,48.182-76.215
		c0-12.11-2.624-24.419-8.154-36.076L669.932,1229.652z M630.071,1333.847c-10.676,5.063-21.907,7.454-32.974,7.455
		c-28.842-0.005-56.494-16.258-69.67-44.044c-5.063-10.675-7.458-21.906-7.458-32.971c0.004-28.84,16.257-56.493,44.047-69.671
		c10.673-5.064,21.904-7.456,32.969-7.457c28.837,0.005,56.49,16.258,69.672,44.046c5.062,10.674,7.455,21.905,7.455,32.971
		C674.109,1293.015,657.854,1320.667,630.071,1333.847z"/>
	<path style="fill:#243265;" d="M976.473,1011.495l0.505-0.24c8.441-4.004,12.069-14.186,8.066-22.626l-66.91-141.038
		c-4.005-8.44-14.186-12.069-22.627-8.065l-0.505,0.24c-8.439,4.004-12.069,14.186-8.066,22.626l66.911,141.038
		C957.85,1011.87,968.032,1015.499,976.473,1011.495z"/>
	<path style="fill:#243265;" d="M1030.866,966.89l-66.911-141.038c-4.004-8.44-14.186-12.07-22.626-8.066l-0.505,0.24
		c-8.441,4.004-12.071,14.186-8.066,22.626l66.91,141.038c4.005,8.44,14.186,12.07,22.626,8.065l0.507-0.239
		C1031.24,985.512,1034.87,975.331,1030.866,966.89z"/>
	<path style="fill:#243265;" d="M1045.489,959.952c4.004,8.44,14.186,12.07,22.626,8.066l0.505-0.24
		c8.441-4.004,12.071-14.186,8.066-22.626l-66.91-141.038c-4.005-8.44-14.186-12.07-22.626-8.065l-0.507,0.24
		c-8.44,4.004-12.07,14.186-8.066,22.626L1045.489,959.952z"/>
	<path style="fill:#243265;" d="M1508.009,654.136c-21.797-45.945-76.711-65.521-122.655-43.723
		c-45.945,21.797-65.52,76.711-43.723,122.656c21.797,45.944,76.711,65.52,122.656,43.723
		C1510.23,754.995,1529.806,700.08,1508.009,654.136z"/>
	<path style="fill:#E71D73;" d="M1399.618,620.948c-30.996,14.705-44.203,51.753-29.498,82.75
		c14.705,30.997,51.754,44.203,82.75,29.498c30.996-14.705,44.203-51.754,29.498-82.75
		C1467.663,619.45,1430.615,606.243,1399.618,620.948z"/>
	
		<ellipse transform="matrix(0.9983 -0.0584 0.0584 0.9983 -38.2778 97.777)" style="fill:#243265;" cx="1652.836" cy="703.434" rx="92.077" ry="92.077"/>
	<path style="fill:#6E7ABA;" d="M1627.635,630.78c-30.997,14.705-44.203,51.753-29.498,82.75
		c14.705,30.997,51.753,44.203,82.749,29.498c30.996-14.705,44.203-51.753,29.498-82.749
		C1695.679,629.282,1658.631,616.075,1627.635,630.78z"/>
	<path style="fill:#243265;" d="M1482.007,874.683c-21.797-45.945-76.712-65.52-122.656-43.723
		c-45.945,21.797-65.52,76.712-43.723,122.656c21.797,45.945,76.711,65.52,122.656,43.723
		C1484.228,975.542,1503.804,920.627,1482.007,874.683z"/>
	<path style="fill:#95C11F;" d="M1373.616,841.495c-30.996,14.705-44.202,51.754-29.498,82.75
		c14.705,30.996,51.754,44.203,82.75,29.498c30.996-14.705,44.203-51.753,29.498-82.75
		C1441.661,839.997,1404.612,826.79,1373.616,841.495z"/>
	
		<ellipse transform="matrix(0.7071 -0.7071 0.7071 0.7071 -176.8648 1420.9727)" style="fill:#243265;" cx="1626.833" cy="923.981" rx="92.077" ry="92.077"/>
	<path style="fill:#F6A654;" d="M1601.632,851.327c-30.996,14.705-44.203,51.754-29.498,82.75
		c14.705,30.996,51.753,44.203,82.749,29.498c30.997-14.705,44.203-51.753,29.498-82.75
		C1669.676,849.828,1632.629,836.622,1601.632,851.327z"/>
	<path style="fill:#243265;" d="M1020.325,1152.458l-4.527-9.544c-6.118-12.894-21.672-18.439-34.567-12.322l-58.904,27.945
		c-12.894,6.118-18.439,21.672-12.322,34.566l4.527,9.545c6.117,12.894,21.672,18.439,34.567,12.322l58.905-27.945
		C1020.897,1180.908,1026.442,1165.353,1020.325,1152.458z"/>
	<path style="fill:#F9B233;" d="M1009.196,1141.251c-4.216-8.885-14.933-12.705-23.818-8.49l-46.044,21.845
		c-8.884,4.215-12.705,14.932-8.489,23.817l1.834,3.867c4.215,8.885,14.933,12.705,23.817,8.49l46.044-21.844
		c8.884-4.214,12.704-14.932,8.489-23.817L1009.196,1141.251z"/>
	<path style="fill:#243265;" d="M1138.789,1096.258l-4.529-9.544c-6.117-12.895-21.671-18.44-34.566-12.322l-58.904,27.945
		c-12.894,6.117-18.439,21.672-12.321,34.566l4.528,9.544c6.117,12.895,21.672,18.44,34.566,12.322l58.904-27.945
		C1139.361,1124.707,1144.906,1109.152,1138.789,1096.258z"/>
	<path style="fill:#F9B233;" d="M1127.659,1085.05c-4.214-8.884-14.932-12.704-23.816-8.49l-46.044,21.844
		c-8.884,4.215-12.705,14.932-8.491,23.817l1.836,3.868c4.215,8.885,14.932,12.705,23.816,8.49l46.044-21.844
		c8.884-4.215,12.705-14.932,8.491-23.817L1127.659,1085.05z"/>
	<path style="fill:#243265;" d="M1255.852,1040.721l-4.529-9.544c-6.117-12.895-21.671-18.439-34.566-12.322l-58.905,27.945
		c-12.894,6.117-18.439,21.672-12.321,34.566l4.528,9.544c6.117,12.895,21.672,18.439,34.566,12.322l58.905-27.945
		C1256.425,1069.17,1261.969,1053.615,1255.852,1040.721z"/>
	<path style="fill:#F9B233;" d="M1244.722,1029.513c-4.214-8.884-14.932-12.705-23.816-8.49l-46.044,21.844
		c-8.884,4.215-12.705,14.932-8.489,23.817l1.834,3.868c4.215,8.884,14.932,12.705,23.818,8.49l46.044-21.844
		c8.884-4.215,12.704-14.932,8.489-23.817L1244.722,1029.513z"/>
</g>
</svg>
